<svg width="87" height="96" viewBox="0 0 87 96" fill="none" xmlns="http://www.w3.org/2000/svg">
<path d="M61.0383 57.7569C61.0383 60.9607 60.056 63.6039 58.0914 65.6863C56.1268 67.7688 53.4406 69.0904 50.0326 69.6511C49.8321 69.7312 49.7319 69.8513 49.7319 70.0115L49.792 73.9162C49.792 74.1164 49.7118 74.2766 49.5515 74.3967C49.4312 74.5569 49.2708 74.637 49.0703 74.637H43.0563C42.8558 74.637 42.6754 74.5569 42.515 74.3967C42.3947 74.2766 42.3346 74.1164 42.3346 73.9162L42.3947 69.9514C42.3947 69.7912 42.2945 69.6711 42.094 69.591C38.6861 68.9102 35.9998 67.5085 34.0352 65.386C32.1107 63.2634 31.1484 60.6003 31.1484 57.3964V56.0749C31.1484 55.8746 31.2086 55.7144 31.3289 55.5943C31.4892 55.4341 31.6697 55.354 31.8701 55.354H38.3653C38.5658 55.354 38.7262 55.4341 38.8464 55.5943C39.0068 55.7144 39.087 55.8746 39.087 56.0749V56.9759C39.087 58.5779 39.7886 59.9395 41.1919 61.0608C42.5952 62.1421 44.5197 62.6828 46.9654 62.6828C49.0102 62.6828 50.5137 62.2422 51.476 61.3612C52.4783 60.4401 52.9795 59.3187 52.9795 57.9972C52.9795 57.036 52.6788 56.2351 52.0774 55.5943C51.476 54.9135 50.634 54.3328 49.5515 53.8522C48.509 53.3316 46.8451 52.6308 44.5598 51.7497C41.9537 50.8286 39.7686 49.8875 38.0045 48.9263C36.2403 47.9652 34.7368 46.6636 33.4939 45.0217C32.2911 43.3397 31.6897 41.2772 31.6897 38.8343C31.6897 35.7506 32.6119 33.2076 34.4562 31.2052C36.3406 29.1627 38.8665 27.8412 42.0339 27.2405C42.2344 27.1604 42.3346 27.0402 42.3346 26.88L42.2143 22.4948C42.2143 22.2945 42.2744 22.1344 42.3947 22.0142C42.5551 21.854 42.7355 21.7739 42.936 21.7739H48.9501C49.1505 21.7739 49.3109 21.854 49.4312 22.0142C49.5916 22.1344 49.6717 22.2945 49.6717 22.4948L49.6116 27.0002C49.6116 27.1604 49.7118 27.2805 49.9123 27.3606C53.2401 28.0414 55.8863 29.5032 57.8509 31.7458C59.8155 33.9485 60.7978 36.6517 60.7978 39.8555V40.7566C60.7978 40.9568 60.7176 41.137 60.5572 41.2972C60.4369 41.4174 60.2765 41.4774 60.0761 41.4774H53.5207C53.3203 41.4774 53.1399 41.4174 52.9795 41.2972C52.8592 41.137 52.7991 40.9568 52.7991 40.7566V40.276C52.7991 38.594 52.1375 37.1723 50.8144 36.0109C49.4913 34.8095 47.6871 34.2088 45.4018 34.2088C43.5975 34.2088 42.1943 34.6092 41.1919 35.4102C40.1896 36.2112 39.6884 37.3125 39.6884 38.7141C39.6884 39.7153 39.9691 40.5563 40.5304 41.2372C41.1318 41.918 42.0138 42.5387 43.1766 43.0994C44.3393 43.66 46.1435 44.3809 48.5892 45.262C51.2755 46.2632 53.4005 47.1642 54.9641 47.9652C56.5278 48.7661 57.9311 49.9676 59.174 51.5695C60.4169 53.1714 61.0383 55.2339 61.0383 57.7569Z" fill="#FF0C34"/>
<path d="M85 22.7634L77.904 0.786556L62.4195 17.9203L85 22.7634ZM11.2957 20.9388L12.7483 22.3135L11.2957 20.9388ZM20.3168 85.1825L19.0056 86.6928L19.0723 86.7507L19.1439 86.8025L20.3168 85.1825ZM86.5819 74.2105C87.2578 73.3369 87.0974 72.0807 86.2238 71.4049C85.3501 70.729 84.094 70.8893 83.4181 71.763L86.5819 74.2105ZM72.7332 9.01598C64.9927 3.99842 55.2051 0.318821 44.3053 1.10626C33.368 1.89641 21.577 7.16567 9.84305 19.564L12.7483 22.3135C23.9238 10.5052 34.8247 5.80159 44.5935 5.09586C54.3998 4.38742 63.3322 7.68891 70.5575 12.3725L72.7332 9.01598ZM9.84305 19.564C4.67023 25.0298 -0.0447705 35.6889 0.000321627 47.983C0.0458136 60.3862 4.93177 74.4746 19.0056 86.6928L21.6279 83.6722C8.44649 72.2288 4.04166 59.2462 4.00029 47.9684C3.95853 36.5816 8.36061 26.9496 12.7483 22.3135L9.84305 19.564ZM19.1439 86.8025C25.3377 91.287 36.0776 95.9878 48.3605 95.6395C60.749 95.2882 74.5204 89.8014 86.5819 74.2105L83.4181 71.763C72.0632 86.4406 59.395 91.325 48.2471 91.6411C36.9935 91.9602 27.1001 87.6246 21.4897 83.5625L19.1439 86.8025Z" fill="#FF0C34"/>
</svg>
