<svg width="99" height="101" viewBox="0 0 99 101" fill="none" xmlns="http://www.w3.org/2000/svg">
<path d="M67.6334 35.4887C65.3679 22.4449 60.1496 11.9594 55.3577 5.96894C54.4547 4.84008 53.0717 4.2601 51.6287 4.2601H46.2904C44.5554 4.2601 42.9182 5.13443 42.0048 6.61398C36.0571 16.2483 32.75 26.0455 31.3061 35.4887M67.6334 35.4887C70.4851 51.9074 68.6583 72.3796 55.4137 93.0424C54.4874 94.4876 52.8674 95.3436 51.1545 95.3436H48.4774C46.9724 95.3436 45.5373 94.7106 44.6282 93.5077C36.7509 83.0849 27.4769 60.5316 31.3061 35.4887M67.6334 35.4887H31.3061M67.6334 35.4887H92.8102M31.3061 35.4887H7.18916M7.18916 64.115H92.6988M48.5899 1.65771C62.2766 2.51571 90.5159 10.8416 95.1476 37.2115C95.2492 37.7897 95.3868 38.3611 95.5542 38.9237C99.5065 52.2053 97.6287 81.003 60.2122 97.4106C59.4005 97.7666 58.5249 98.0139 57.6459 98.125C39.9799 100.358 21.252 96.296 7.07661 71.9221C1.88746 61.5126 -3.82061 36.0092 14.8604 17.272C19.1843 12.0673 31.9837 1.65771 48.5899 1.65771Z" stroke="#FF0C34" stroke-width="3" stroke-linecap="round"/>
</svg>
