<svg width="123" height="128" viewBox="0 0 123 128" fill="none" xmlns="http://www.w3.org/2000/svg">
<path d="M122.192 19.781L103.834 1.46368C103.318 0.948255 102.618 0.658356 101.888 0.657715H65.1716C63.4675 0.657715 61.8332 1.33316 60.6282 2.53547C59.4232 3.73778 58.7463 5.36845 58.7463 7.06877V15.3116H50.4851C48.781 15.3116 47.1466 15.987 45.9417 17.1893C44.7367 18.3916 44.0597 20.0223 44.0597 21.7226V87.6649C44.0597 89.3652 44.7367 90.9959 45.9417 92.1982C47.1466 93.4005 48.781 94.076 50.4851 94.076H101.888C103.592 94.076 105.227 93.4005 106.431 92.1982C107.636 90.9959 108.313 89.3652 108.313 87.6649V79.4221H116.575C118.279 79.4221 119.913 78.7467 121.118 77.5444C122.323 76.3421 123 74.7114 123 73.0111V21.7226C122.999 20.9942 122.709 20.2958 122.192 19.781ZM102.806 87.6649C102.806 87.9078 102.709 88.1408 102.537 88.3125C102.365 88.4843 102.132 88.5808 101.888 88.5808H50.4851C50.2416 88.5808 50.0082 88.4843 49.836 88.3125C49.6639 88.1408 49.5672 87.9078 49.5672 87.6649V21.7226C49.5672 21.4797 49.6639 21.2468 49.836 21.075C50.0082 20.9032 50.2416 20.8068 50.4851 20.8068H86.0587L102.806 37.5167V87.6649ZM117.493 73.0111C117.493 73.254 117.396 73.4869 117.224 73.6587C117.052 73.8305 116.818 73.9269 116.575 73.9269H108.313V36.3765C108.313 35.648 108.022 34.9496 107.506 34.4348L89.1475 16.1175C88.6315 15.6021 87.9316 15.3122 87.2015 15.3116H64.2537V7.06877C64.2537 6.82587 64.3504 6.59292 64.5226 6.42116C64.6947 6.2494 64.9282 6.15291 65.1716 6.15291H100.745L117.493 22.8629V73.0111ZM89.9552 58.3572C89.9552 59.0859 89.6651 59.7848 89.1487 60.3001C88.6322 60.8154 87.9318 61.1048 87.2015 61.1048H65.1716C64.4413 61.1048 63.7409 60.8154 63.2245 60.3001C62.708 59.7848 62.4179 59.0859 62.4179 58.3572C62.4179 57.6285 62.708 56.9297 63.2245 56.4144C63.7409 55.8991 64.4413 55.6096 65.1716 55.6096H87.2015C87.9318 55.6096 88.6322 55.8991 89.1487 56.4144C89.6651 56.9297 89.9552 57.6285 89.9552 58.3572ZM89.9552 73.0111C89.9552 73.7398 89.6651 74.4387 89.1487 74.9539C88.6322 75.4692 87.9318 75.7587 87.2015 75.7587H65.1716C64.4413 75.7587 63.7409 75.4692 63.2245 74.9539C62.708 74.4387 62.4179 73.7398 62.4179 73.0111C62.4179 72.2824 62.708 71.5835 63.2245 71.0682C63.7409 70.553 64.4413 70.2635 65.1716 70.2635H87.2015C87.9318 70.2635 88.6322 70.553 89.1487 71.0682C89.6651 71.5835 89.9552 72.2824 89.9552 73.0111Z" fill="#FF0C34"/>
<path d="M49.3632 88.5808H40.3881V82.068C40.3881 78.6134 38.9697 75.3002 36.4449 72.8575C33.9202 70.4147 30.4959 69.0423 26.9254 69.0423C23.3548 69.0423 19.9306 70.4147 17.4058 72.8575C14.8811 75.3002 13.4627 78.6134 13.4627 82.068V88.5808H4.48756C3.29739 88.5808 2.15596 89.0382 1.31438 89.8525C0.472795 90.6668 0 91.7711 0 92.9227V123.316C0 124.467 0.472795 125.572 1.31438 126.386C2.15596 127.2 3.29739 127.658 4.48756 127.658H49.3632C50.5534 127.658 51.6948 127.2 52.5364 126.386C53.378 125.572 53.8507 124.467 53.8507 123.316V92.9227C53.8507 91.7711 53.378 90.6668 52.5364 89.8525C51.6948 89.0382 50.5534 88.5808 49.3632 88.5808ZM17.9503 82.068C17.9503 79.7649 18.8958 77.5561 20.579 75.9276C22.2622 74.2991 24.545 73.3842 26.9254 73.3842C29.3057 73.3842 31.5886 74.2991 33.2717 75.9276C34.9549 77.5561 35.9005 79.7649 35.9005 82.068V88.5808H17.9503V82.068ZM49.3632 123.316H4.48756V92.9227H49.3632V123.316ZM30.291 108.119C30.291 108.763 30.0937 109.393 29.7238 109.928C29.354 110.464 28.8284 110.881 28.2134 111.128C27.5984 111.374 26.9216 111.439 26.2688 111.313C25.6159 111.187 25.0162 110.877 24.5455 110.422C24.0748 109.966 23.7542 109.386 23.6244 108.755C23.4945 108.123 23.5612 107.468 23.8159 106.873C24.0706 106.278 24.502 105.769 25.0555 105.412C25.609 105.054 26.2597 104.863 26.9254 104.863C27.818 104.863 28.6741 105.206 29.3053 105.817C29.9364 106.427 30.291 107.256 30.291 108.119Z" fill="#FF0C34"/>
</svg>
