<svg width="109" height="122" viewBox="0 0 109 122" fill="none" xmlns="http://www.w3.org/2000/svg">
<path d="M103.195 77.9371C107.266 68.8099 108.09 55.8412 107.993 50.4978V22.9141L54.4963 1.8291L1 22.9141V57.8631C2.07101 65.159 4.54173 72.055 7.36269 77.9371M103.195 77.9371V35.6228L88.6584 22.9141M103.195 77.9371C102.425 79.6263 101.177 81.8205 99.4158 84.3682M54.4963 120.829C47.3247 117.411 29.9287 107.312 17.7176 94.2563C16.7558 93.1584 15.5636 91.6433 14.2582 89.7793M54.4963 120.829C74.2563 111.166 87.4928 99.1772 95.2938 89.7793M54.4963 120.829L54.776 89.7793M14.2582 89.7793C13.2332 88.3157 12.1384 86.637 11.0306 84.7765M14.2582 89.7793H15.6824M95.2938 89.7793H94.4732M95.2938 89.7793C96.8931 87.8526 98.264 86.0347 99.4158 84.3682M54.776 89.7793V10.2053M54.776 89.7793H48.6815M54.776 89.7793H61.3287M54.776 10.2053L72.2315 25.3692V34.7563M54.776 10.2053L37.1972 25.3692V34.7563M72.2315 89.7793V34.7563M72.2315 89.7793H66.2713M72.2315 89.7793H77.6102M37.1972 89.7793V34.7563M37.1972 89.7793H32.2547M37.1972 89.7793H43.4482M21.4972 89.7793V22.9141M21.4972 89.7793H27.6028M21.4972 89.7793H15.6824M21.4972 22.9141L7.10556 35.6228L7.36269 77.9371M21.4972 22.9141L37.1972 34.7563M7.36269 77.9371C8.54937 80.4116 9.79804 82.7066 11.0306 84.7765M27.6028 89.7793V73.0269L32.2547 74.4711V89.7793M27.6028 89.7793H32.2547M43.4482 89.7793V77.9371L48.6815 77.0706V89.7793M43.4482 89.7793H48.6815M88.6584 89.7793V22.9141M88.6584 89.7793H82.8436M88.6584 89.7793H94.4732M88.6584 22.9141L72.2315 34.7563M61.3287 89.7793V76.3485L66.2713 77.9371V89.7793M61.3287 89.7793H66.2713M77.6102 89.7793V74.4711L82.8436 73.0269V89.7793M77.6102 89.7793H82.8436M11.0306 84.7765V73.0269L15.6824 72.016V89.7793M94.4732 89.7793V72.1604L99.4158 73.749V84.3682M77.6102 53.8194L81.5352 52.2308V59.7405L77.6102 61.0403V53.8194ZM81.6806 37.5002V44.8655L77.6102 46.5985V38.9444L81.6806 37.5002ZM93.8917 52.2308L97.6714 54.1082V61.7624L93.7464 59.8849L93.8917 52.2308ZM94.0371 37.3558L97.8167 39.3776V46.5985L93.601 44.7211L93.7464 37.2114L94.0371 37.3558ZM61.4741 58.5852L65.9806 60.7514V68.1167L61.4741 66.3837V58.5852ZM61.4741 43.1325L65.9806 45.4432V52.6641L61.4741 50.931V43.1325ZM61.6195 27.1022L66.2713 29.5573V37.067L61.6195 35.0451V27.1022ZM43.5935 29.8461L48.1 27.391V35.9116L43.5935 37.6446V29.8461ZM43.7389 45.4432L48.1 43.7102V51.5087L43.7389 53.0973V45.4432ZM43.7389 60.7514L48.1 59.0184V67.2502L43.7389 68.55V60.7514ZM28.0389 37.3558L32.1093 39.2332V46.3097L28.0389 44.5767V37.3558ZM27.7482 51.942L31.8185 53.8194V61.4735L27.7482 59.8849V51.942ZM12.1935 39.2332L16.1185 37.3558V45.1543L12.1935 46.8874V39.2332ZM12.3389 54.1082L16.2639 52.2308V60.3182L12.3389 61.9068V54.1082Z" stroke="#FF0C34" stroke-width="2"/>
</svg>
