<svg width="38" height="33" viewBox="0 0 38 33" fill="none" xmlns="http://www.w3.org/2000/svg">
<path d="M18.9602 31.5C13.3562 27.0376 7.80547 26.0811 4.27788 26.2433C2.93632 26.305 1.61877 25.2957 1.61877 23.9527V3.95585C1.61877 3.14848 2.10395 2.40667 2.87292 2.16061C10.877 -0.400629 16.882 5.08948 18.9602 8.3202M18.9602 31.5C21.146 29.4758 27.002 25.9295 34.2435 26.3667C35.4879 26.4419 36.6188 25.5053 36.6188 24.2587V3.90711C36.6188 3.12451 36.1675 2.40152 35.4192 2.17247C31.6177 1.00896 24.5088 1.0019 18.9602 8.3202M18.9602 31.5V8.3202M5.49997 11H13.5M5.49997 14.5H13.5M5.49997 18.5H13M22.943 11H31M22.943 14.5H31M22.943 18.5H31" stroke="white" stroke-width="2" stroke-linecap="round"/>
</svg>
