<svg width="25" height="24" viewBox="0 0 25 24" fill="none" xmlns="http://www.w3.org/2000/svg">
<path d="M20.281 9.53055L12.781 17.0306C12.7114 17.1003 12.6287 17.1556 12.5376 17.1933C12.4466 17.2311 12.349 17.2505 12.2504 17.2505C12.1519 17.2505 12.0543 17.2311 11.9632 17.1933C11.8722 17.1556 11.7894 17.1003 11.7198 17.0306L4.21979 9.53055C4.07906 9.38982 4 9.19895 4 8.99993C4 8.80091 4.07906 8.61003 4.21979 8.4693C4.36052 8.32857 4.55139 8.24951 4.75042 8.24951C4.94944 8.24951 5.14031 8.32857 5.28104 8.4693L12.2504 15.4396L19.2198 8.4693C19.2895 8.39962 19.3722 8.34435 19.4632 8.30663C19.5543 8.26892 19.6519 8.24951 19.7504 8.24951C19.849 8.24951 19.9465 8.26892 20.0376 8.30663C20.1286 8.34435 20.2114 8.39962 20.281 8.4693C20.3507 8.53899 20.406 8.62171 20.4437 8.71276C20.4814 8.8038 20.5008 8.90138 20.5008 8.99993C20.5008 9.09847 20.4814 9.19606 20.4437 9.2871C20.406 9.37815 20.3507 9.46087 20.281 9.53055Z" fill="white"/>
</svg>
