<svg width="27" height="31" viewBox="0 0 27 31" fill="none" xmlns="http://www.w3.org/2000/svg">
<path d="M22.5734 0H3.66435C2.72404 0 1.82224 0.376853 1.15734 1.04766C0.492435 1.71846 0.118896 2.62826 0.118896 3.57692V27.4231C0.118896 28.3717 0.492435 29.2815 1.15734 29.9523C1.82224 30.6231 2.72404 31 3.66435 31H22.5734C23.5138 31 24.4156 30.6231 25.0805 29.9523C25.7454 29.2815 26.1189 28.3717 26.1189 27.4231V3.57692C26.1189 2.62826 25.7454 1.71846 25.0805 1.04766C24.4156 0.376853 23.5138 0 22.5734 0ZM23.7553 27.4231C23.7553 27.7393 23.6307 28.0426 23.4091 28.2662C23.1875 28.4898 22.8869 28.6154 22.5734 28.6154H3.66435C3.35091 28.6154 3.05031 28.4898 2.82868 28.2662C2.60705 28.0426 2.48253 27.7393 2.48253 27.4231V3.57692C2.48253 3.2607 2.60705 2.95744 2.82868 2.73383C3.05031 2.51023 3.35091 2.38462 3.66435 2.38462H22.5734C22.8869 2.38462 23.1875 2.51023 23.4091 2.73383C23.6307 2.95744 23.7553 3.2607 23.7553 3.57692V27.4231ZM19.028 5.96154C19.028 6.27776 18.9035 6.58103 18.6818 6.80463C18.4602 7.02823 18.1596 7.15385 17.8462 7.15385H8.39162C8.07819 7.15385 7.77759 7.02823 7.55595 6.80463C7.33432 6.58103 7.20981 6.27776 7.20981 5.96154C7.20981 5.64532 7.33432 5.34205 7.55595 5.11845C7.77759 4.89485 8.07819 4.76923 8.39162 4.76923H17.8462C18.1596 4.76923 18.4602 4.89485 18.6818 5.11845C18.9035 5.34205 19.028 5.64532 19.028 5.96154Z" fill="white"/>
<path d="M20.2713 13.0707L17.1031 9.87379C16.9977 9.76748 16.8727 9.68315 16.735 9.62561C16.5973 9.56808 16.4498 9.53846 16.3007 9.53846C16.1517 9.53846 16.0042 9.56808 15.8665 9.62561C15.7288 9.68315 15.6038 9.76748 15.4984 9.87379L6.7545 18.6956C6.64869 18.8015 6.5648 18.9275 6.5077 19.0664C6.45061 19.2053 6.42146 19.3543 6.42193 19.5046V22.7016C6.42193 23.0051 6.54147 23.2963 6.75424 23.5109C6.96701 23.7256 7.25559 23.8461 7.55649 23.8461H10.7255C10.8745 23.8466 11.0222 23.8172 11.1598 23.7596C11.2975 23.702 11.4225 23.6174 11.5274 23.5106L20.2713 14.6896C20.3767 14.5833 20.4603 14.4571 20.5174 14.3182C20.5744 14.1793 20.6037 14.0305 20.6037 13.8801C20.6037 13.7298 20.5744 13.581 20.5174 13.4421C20.4603 13.3032 20.3767 13.177 20.2713 13.0707ZM10.7255 22.7016H7.55649V19.5046L13.7966 13.2095L16.9655 16.4064L10.7255 22.7016ZM17.7675 15.5967L14.5986 12.4004L16.3004 10.6836L19.4694 13.8798L17.7675 15.5967Z" fill="white"/>
</svg>
