<svg width="34" height="33" viewBox="0 0 34 33" fill="none" xmlns="http://www.w3.org/2000/svg">
<path d="M4.80774 17.4703V30.2895C4.68397 31.6532 5.47811 31.9942 5.89065 31.9942H12.0787C13.4401 31.9942 13.7804 30.8577 13.7804 30.2895V25.0205C13.7804 22.293 16.4619 22.0244 17.8027 22.231C19.6591 22.355 20.2263 24.1423 20.2779 25.0205V30.2895C20.2779 31.7772 21.3093 32.0458 21.8249 31.9942H27.8583C29.0959 31.9942 29.3022 30.8577 29.2506 30.2895V16.7656C29.2506 16.0182 29.8565 15.4123 30.604 15.4123C30.7324 15.4123 30.8628 15.3943 30.9849 15.3544C33.7108 14.4638 32.4254 12.6565 31.4164 11.848L18.2333 1.90787C17.5205 1.37045 16.5379 1.37045 15.8251 1.90788L2.64191 11.848C0.529047 13.6314 1.42113 14.6514 2.78101 15.1126C3.8483 15.4745 4.80774 16.3434 4.80774 17.4703Z" stroke="white" stroke-width="2"/>
</svg>
