<svg width="18" height="25" viewBox="0 0 18 25" fill="none" xmlns="http://www.w3.org/2000/svg">
<path d="M6.37093 17.1348C6.2488 17.1348 6.13889 17.0997 6.04119 17.0295C5.96791 16.9359 5.93127 16.8305 5.93127 16.7135V15.5899C5.93127 14.4195 6.23659 13.4831 6.84722 12.7809C7.48228 12.0552 8.38602 11.2945 9.55843 10.4986C10.511 9.86657 11.2193 9.30477 11.6834 8.8132C12.1475 8.32163 12.3795 7.72472 12.3795 7.02247C12.3795 6.27341 12.0864 5.6765 11.5002 5.23174C10.914 4.76358 10.1446 4.52949 9.19205 4.52949C8.16619 4.52949 7.33573 4.77528 6.70067 5.26685C6.09004 5.75843 5.78472 6.39045 5.78472 7.16292V7.72472C5.78472 7.98221 5.63817 8.11095 5.34507 8.11095L1.05843 7.93539C0.936303 7.93539 0.826389 7.90028 0.728688 7.83006C0.655412 7.73642 0.618774 7.63109 0.618774 7.51404V7.16292C0.618774 5.75843 0.985154 4.51779 1.71791 3.44101C2.45067 2.34082 3.46432 1.49813 4.75886 0.912922C6.07783 0.304307 7.59219 0 9.30196 0C10.9629 0 12.4162 0.292603 13.6619 0.877808C14.932 1.43961 15.909 2.23549 16.5929 3.26545C17.2768 4.29541 17.6188 5.48923 17.6188 6.84691C17.6188 7.87687 17.4234 8.76639 17.0326 9.51545C16.6662 10.2411 16.2143 10.838 15.677 11.3062C15.1396 11.7743 14.4557 12.2893 13.6252 12.8511C12.7459 13.4363 12.0987 13.9396 11.6834 14.361C11.2682 14.7823 11.0606 15.2973 11.0606 15.9059V16.7135C11.0606 16.8305 11.0117 16.9359 10.914 17.0295C10.8408 17.0997 10.7431 17.1348 10.6209 17.1348H6.37093ZM8.34938 25C7.51892 25 6.8228 24.7425 6.26102 24.2275C5.72366 23.6891 5.45498 23.022 5.45498 22.2261C5.45498 21.4302 5.72366 20.7748 6.26102 20.2598C6.79837 19.7449 7.49449 19.4874 8.34938 19.4874C9.20426 19.4874 9.88817 19.7449 10.4011 20.2598C10.9385 20.7514 11.2071 21.4068 11.2071 22.2261C11.2071 23.022 10.9385 23.6891 10.4011 24.2275C9.86374 24.7425 9.17984 25 8.34938 25Z" fill="white"/>
</svg>
