<svg width="31" height="29" viewBox="0 0 31 29" fill="none" xmlns="http://www.w3.org/2000/svg">
<path d="M1.08033 14.2791C1.20155 14.3669 1.3395 14.4309 1.48629 14.4672C1.63308 14.5036 1.78584 14.5116 1.93584 14.4909C2.08585 14.4702 2.23017 14.4211 2.36056 14.3465C2.49094 14.2719 2.60485 14.1732 2.69577 14.056C3.39439 13.1557 4.3003 12.425 5.34175 11.9217C6.3832 11.4184 7.53159 11.1564 8.69597 11.1564C9.86035 11.1564 11.0087 11.4184 12.0502 11.9217C13.0916 12.425 13.9975 13.1557 14.6962 14.056C14.88 14.2924 15.1535 14.4486 15.4564 14.4901C15.7593 14.5317 16.067 14.4553 16.3116 14.2777C16.3988 14.215 16.4761 14.1403 16.5409 14.056C17.2396 13.1557 18.1455 12.425 19.1869 11.9217C20.2284 11.4184 21.3768 11.1564 22.5411 11.1564C23.7055 11.1564 24.8539 11.4184 25.8954 11.9217C26.9368 12.425 27.8427 13.1557 28.5413 14.056C28.7252 14.2926 28.9987 14.449 29.3018 14.4907C29.6049 14.5324 29.9127 14.456 30.1575 14.2784C30.4023 14.1007 30.5641 13.8363 30.6073 13.5434C30.6504 13.2505 30.5714 12.953 30.3876 12.7163C29.3662 11.393 28.0042 10.351 26.4369 9.69409C27.2961 8.93594 27.8981 7.94444 28.1638 6.84972C28.4296 5.75499 28.3466 4.6082 27.926 3.55984C27.5053 2.51148 26.7665 1.61053 25.8065 0.975243C24.8466 0.339953 23.7103 0 22.5469 0C21.3835 0 20.2472 0.339953 19.2873 0.975243C18.3273 1.61053 17.5886 2.51148 17.1679 3.55984C16.7472 4.6082 16.6643 5.75499 16.93 6.84972C17.1957 7.94444 17.7977 8.93594 18.6569 9.69409C17.5253 10.167 16.4973 10.844 15.6279 11.6889C14.7586 10.844 13.7306 10.167 12.599 9.69409C13.4582 8.93594 14.0601 7.94444 14.3259 6.84972C14.5916 5.75499 14.5087 4.6082 14.088 3.55984C13.6673 2.51148 12.9285 1.61053 11.9686 0.975243C11.0086 0.339953 9.87238 0 8.70895 0C7.54552 0 6.40928 0.339953 5.44933 0.975243C4.48938 1.61053 3.75059 2.51148 3.3299 3.55984C2.90922 4.6082 2.8263 5.75499 3.09203 6.84972C3.35776 7.94444 3.95972 8.93594 4.81892 9.69409C3.2448 10.3489 1.87608 11.3915 0.849551 12.7177C0.758633 12.8349 0.692482 12.9682 0.654875 13.1101C0.617268 13.252 0.608942 13.3996 0.630372 13.5446C0.651801 13.6896 0.702567 13.8291 0.779771 13.9551C0.856975 14.0811 0.959104 14.1912 1.08033 14.2791ZM22.5426 2.23465C23.2272 2.23465 23.8965 2.43087 24.4658 2.79849C25.035 3.16612 25.4787 3.68864 25.7407 4.29998C26.0027 4.91132 26.0713 5.58403 25.9377 6.23302C25.8042 6.88202 25.4745 7.47816 24.9903 7.94606C24.5062 8.41396 23.8894 8.7326 23.2179 8.8617C22.5464 8.99079 21.8504 8.92454 21.2179 8.67131C20.5853 8.41809 20.0447 7.98926 19.6643 7.43907C19.284 6.88888 19.0809 6.24203 19.0809 5.58032C19.0809 4.69299 19.4456 3.842 20.0948 3.21457C20.744 2.58714 21.6245 2.23465 22.5426 2.23465ZM8.69597 2.23465C9.38062 2.23465 10.0499 2.43087 10.6192 2.79849C11.1884 3.16612 11.6321 3.68864 11.8941 4.29998C12.1561 4.91132 12.2247 5.58403 12.0911 6.23302C11.9575 6.88202 11.6278 7.47816 11.1437 7.94606C10.6596 8.41396 10.0428 8.7326 9.3713 8.8617C8.69981 8.99079 8.00379 8.92454 7.37125 8.67131C6.73872 8.41809 6.19808 7.98926 5.81771 7.43907C5.43734 6.88888 5.23431 6.24203 5.23431 5.58032C5.23431 4.69299 5.59902 3.842 6.24821 3.21457C6.8974 2.58714 7.77788 2.23465 8.69597 2.23465ZM26.4369 24.192C27.2961 23.4338 27.8981 22.4423 28.1638 21.3476C28.4296 20.2529 28.3466 19.1061 27.926 18.0577C27.5053 17.0094 26.7665 16.1084 25.8065 15.4731C24.8466 14.8379 23.7103 14.4979 22.5469 14.4979C21.3835 14.4979 20.2472 14.8379 19.2873 15.4731C18.3273 16.1084 17.5886 17.0094 17.1679 18.0577C16.7472 19.1061 16.6643 20.2529 16.93 21.3476C17.1957 22.4423 17.7977 23.4338 18.6569 24.192C17.5253 24.6649 16.4973 25.3419 15.6279 26.1868C14.7586 25.3419 13.7306 24.6649 12.599 24.192C13.4582 23.4338 14.0601 22.4423 14.3259 21.3476C14.5916 20.2529 14.5087 19.1061 14.088 18.0577C13.6673 17.0094 12.9285 16.1084 11.9686 15.4731C11.0086 14.8379 9.87238 14.4979 8.70895 14.4979C7.54552 14.4979 6.40928 14.8379 5.44933 15.4731C4.48938 16.1084 3.75059 17.0094 3.3299 18.0577C2.90922 19.1061 2.8263 20.2529 3.09203 21.3476C3.35776 22.4423 3.95972 23.4338 4.81892 24.192C3.2448 24.8468 1.87608 25.8894 0.849551 27.2156C0.758633 27.3328 0.692482 27.4661 0.654875 27.608C0.617268 27.7499 0.608942 27.8975 0.630372 28.0425C0.651801 28.1875 0.702567 28.327 0.779771 28.453C0.856975 28.579 0.959104 28.6891 1.08033 28.777C1.20155 28.8648 1.3395 28.9288 1.48629 28.9651C1.63308 29.0015 1.78584 29.0095 1.93584 28.9888C2.08585 28.9681 2.23017 28.919 2.36056 28.8444C2.49094 28.7698 2.60485 28.6711 2.69577 28.5539C3.39439 27.6536 4.3003 26.9229 5.34175 26.4196C6.3832 25.9163 7.53159 25.6543 8.69597 25.6543C9.86035 25.6543 11.0087 25.9163 12.0502 26.4196C13.0916 26.9229 13.9975 27.6536 14.6962 28.5539C14.88 28.7903 15.1535 28.9465 15.4564 28.988C15.7593 29.0296 16.067 28.9532 16.3116 28.7756C16.3988 28.7129 16.4761 28.6382 16.5409 28.5539C17.2396 27.6536 18.1455 26.9229 19.1869 26.4196C20.2284 25.9163 21.3768 25.6543 22.5411 25.6543C23.7055 25.6543 24.8539 25.9163 25.8954 26.4196C26.9368 26.9229 27.8427 27.6536 28.5413 28.5539C28.7252 28.7905 28.9987 28.9469 29.3018 28.9886C29.6049 29.0303 29.9127 28.9539 30.1575 28.7763C30.4023 28.5986 30.5641 28.3342 30.6073 28.0413C30.6504 27.7484 30.5714 27.4509 30.3876 27.2142C29.3662 25.8909 28.0042 24.8489 26.4369 24.192ZM8.69597 16.7325C9.38062 16.7325 10.0499 16.9288 10.6192 17.2964C11.1884 17.664 11.6321 18.1865 11.8941 18.7979C12.1561 19.4092 12.2247 20.0819 12.0911 20.7309C11.9575 21.3799 11.6278 21.9761 11.1437 22.444C10.6596 22.9119 10.0428 23.2305 9.3713 23.3596C8.69981 23.4887 8.00379 23.4224 7.37125 23.1692C6.73872 22.916 6.19808 22.4872 5.81771 21.937C5.43734 21.3868 5.23431 20.7399 5.23431 20.0782C5.23431 19.1909 5.59902 18.3399 6.24821 17.7125C6.8974 17.085 7.77788 16.7325 8.69597 16.7325ZM22.5426 16.7325C23.2272 16.7325 23.8965 16.9288 24.4658 17.2964C25.035 17.664 25.4787 18.1865 25.7407 18.7979C26.0027 19.4092 26.0713 20.0819 25.9377 20.7309C25.8042 21.3799 25.4745 21.9761 24.9903 22.444C24.5062 22.9119 23.8894 23.2305 23.2179 23.3596C22.5464 23.4887 21.8504 23.4224 21.2179 23.1692C20.5853 22.916 20.0447 22.4872 19.6643 21.937C19.284 21.3868 19.0809 20.7399 19.0809 20.0782C19.0809 19.1909 19.4456 18.3399 20.0948 17.7125C20.744 17.085 21.6245 16.7325 22.5426 16.7325Z" fill="white"/>
</svg>
