<svg width="89" height="94" viewBox="0 0 89 94" fill="none" xmlns="http://www.w3.org/2000/svg">
<rect x="0.5" y="0.5" width="88" height="93" rx="9.5" fill="url(#paint0_linear_4402_409)"/>
<rect x="0.5" y="0.5" width="88" height="93" rx="9.5" fill="url(#paint1_linear_4402_409)" fill-opacity="0.2"/>
<rect x="0.5" y="0.5" width="88" height="93" rx="9.5" stroke="url(#paint2_linear_4402_409)"/>
<path fill-rule="evenodd" clip-rule="evenodd" d="M34.381 47.7223C34.2358 45.9557 34.4905 44.4143 35.0539 42.8815C35.3061 42.1963 35.6137 41.5799 35.9618 41.0251C37.0788 39.2401 38.2254 38.1132 40.2269 37.0011C42.9567 35.4831 46.3951 35.3465 49.3095 36.4131C50.5766 36.8769 52.0307 37.77 52.7466 38.5044C53.1649 38.9338 53.7357 39.3852 54.1048 39.9069C54.5009 40.4666 54.8158 40.8935 55.1984 41.5775C57.3931 45.5006 56.7805 50.6932 53.6976 54.1058C52.7934 55.106 52.0713 55.7924 50.6246 56.5625C47.1984 58.3832 42.9555 58.3033 39.6549 56.2513C39.2354 55.9905 38.4185 55.4049 38.0802 55.0641L36.1476 52.8522C35.9938 52.632 35.7674 52.2445 35.637 51.98C34.9752 50.6317 34.5212 49.4188 34.3822 47.7223H34.381ZM44.7134 34.0167C39.49 34.2713 35.3172 37.6334 33.5223 42.0806C32.1789 45.4083 32.3733 49.4163 34.0046 52.5939C34.3392 53.2459 34.8546 54.0972 35.2544 54.5438C36.6212 56.0717 36.4674 56.2107 38.5957 57.6082C40.7743 59.0389 43.5078 59.7069 46.2204 59.5568C48.703 59.4203 51.8781 58.2676 53.6225 56.5822C54.0334 56.1849 54.2598 56.1713 54.8663 55.4234C55.9747 54.0554 56.6156 53.2939 57.3279 51.4806C60.6544 43.007 54.2795 33.5492 44.7134 34.0167Z" fill="#E01436"/>
<path fill-rule="evenodd" clip-rule="evenodd" d="M40.3967 53.9756L43.8991 53.9645C44.0701 53.9842 43.8573 53.9424 44.0271 53.9891L44.1488 56.4212L46.7027 56.4028L46.6831 54.026C46.9512 53.9276 47.3203 53.9473 47.5959 53.967C50.151 54.1109 53.1785 50.1189 50.3921 46.8934C48.2171 44.3751 43.7515 46.2807 42.4684 45.1428C41.3698 44.1685 41.6036 42.616 42.8129 42.0574C43.3861 41.7917 44.3764 41.8828 45.0567 41.8828C46.6572 41.8828 48.2589 41.8778 49.8594 41.8852C52.2411 41.8975 51.5854 39.5601 50.5471 39.5355C49.8065 39.5035 47.1395 39.5724 46.7027 39.4593C46.5957 39.1788 46.6215 37.6201 46.6794 37.1465L44.1279 37.1477L44.1316 39.447C43.3172 39.4408 42.6714 39.4506 41.9665 39.7508C38.5182 41.2184 38.6154 45.8883 41.5088 47.415C43.6863 48.564 47.0054 47.4765 48.1458 48.1974C49.4498 49.0228 49.2333 50.7525 48.163 51.3319C47.5331 51.6727 46.6941 51.5755 45.9314 51.5755C44.2829 51.5755 42.6332 51.5816 40.9848 51.578C38.5994 51.5743 39.1616 53.903 40.3992 53.9732L40.3967 53.9756Z" fill="#E01436"/>
<path fill-rule="evenodd" clip-rule="evenodd" d="M63.5576 38.5743C62.9388 38.8721 57.013 38.364 56.8826 38.6629L56.9281 38.7663L56.9834 38.8524C57.2479 39.3445 57.6564 39.8021 57.9664 40.4098C58.9321 42.3043 59.4426 44.0143 59.5472 46.2656L63.5306 46.2754C63.5675 46.8966 63.4432 48.6927 63.5835 49.1208L67.1904 45.8485C67.3651 45.6935 67.4352 45.5668 67.6222 45.4093L69.9128 43.3352C70.181 43.0351 70.5415 42.7275 70.8466 42.5368C70.7383 42.212 70.881 42.4409 70.6448 42.201C70.5894 42.1444 70.4775 42.0693 70.4049 42.0103L64.4889 36.5753C64.0436 36.2099 63.8787 35.9479 63.6019 35.7744L63.5564 38.5707L63.5576 38.5743Z" fill="#E01436"/>
<path fill-rule="evenodd" clip-rule="evenodd" d="M31.3117 47.5834L31.2895 47.346C30.9611 47.3841 27.5989 47.4395 27.3025 47.2845L27.3111 44.5952L27.2446 44.4648C27.0921 44.61 26.9346 44.7109 26.7784 44.8647L20.9251 50.2861C20.7 50.5285 20.2768 50.8902 20 51.0378C20.0972 51.2765 20.5856 51.6566 20.9239 51.9949L21.8244 52.8413C22.004 52.9889 22.127 53.0898 22.3017 53.2399C22.4838 53.3973 22.5514 53.5043 22.7323 53.679L24.5653 55.3373C24.9208 55.7064 25.1213 55.822 25.4596 56.1886C25.6232 56.3658 25.7315 56.4212 25.9062 56.618L27.2754 57.8125L27.2803 54.9843L34.0403 54.9744C33.2886 53.9521 32.708 53.0135 32.2171 51.7599C31.7533 50.5752 31.3424 48.9846 31.3092 47.5822L31.3117 47.5834Z" fill="#E01436"/>
<path fill-rule="evenodd" clip-rule="evenodd" d="M46.7028 39.4602C47.1395 39.5734 49.8066 39.5045 50.5472 39.5365C50.4758 39.3618 47.1235 39.4024 46.7028 39.4602C46.7508 38.9276 46.8172 37.5756 46.6794 37.1475C46.6216 37.6211 46.5958 39.1798 46.7028 39.4602Z" fill="#E01436"/>
<path fill-rule="evenodd" clip-rule="evenodd" d="M47.5959 53.9691C47.3203 53.9494 46.9525 53.9285 46.683 54.0281L46.7027 56.4049L44.1488 56.4233L44.027 53.9912C43.8573 53.9445 44.0701 53.9863 43.8991 53.9666L40.3967 53.9777C40.8211 54.1794 43.4132 54.0244 44.0984 54.0453L44.1267 56.4602L46.7347 56.4405L46.7359 54.0367C47.0189 54.0404 47.3966 54.0736 47.5959 53.9715V53.9691Z" fill="#E01436"/>
<path fill-rule="evenodd" clip-rule="evenodd" d="M63.5577 38.5743L56.7744 38.546L56.8827 38.6641L56.9282 38.7675C56.9048 38.8757 56.879 38.8536 56.9835 38.8536L56.9282 38.7675L56.8827 38.6641C57.0131 38.3652 62.9389 38.872 63.5577 38.5755L63.6033 35.7793L63.5344 35.7818L63.559 38.5755L63.5577 38.5743Z" fill="#E01436"/>
<path fill-rule="evenodd" clip-rule="evenodd" d="M27.3024 47.2844C27.5988 47.4394 30.961 47.3841 31.2894 47.3459L31.3116 47.5834L31.2845 47.298L27.3036 47.2844H27.3024Z" fill="#E01436"/>
<defs>
<linearGradient id="paint0_linear_4402_409" x1="44.5" y1="0" x2="44.5" y2="94" gradientUnits="userSpaceOnUse">
<stop stop-color="#242424"/>
<stop offset="1" stop-color="#242424" stop-opacity="0"/>
</linearGradient>
<linearGradient id="paint1_linear_4402_409" x1="206.318" y1="-93.4659" x2="-9.50567" y2="82.3299" gradientUnits="userSpaceOnUse">
<stop offset="0.224072" stop-color="#FF0C34"/>
<stop offset="0.687143" stop-color="#FF0C34" stop-opacity="0"/>
</linearGradient>
<linearGradient id="paint2_linear_4402_409" x1="44.5" y1="0" x2="44.5" y2="94" gradientUnits="userSpaceOnUse">
<stop stop-color="#2E2E2E"/>
<stop offset="1" stop-color="#2E2E2E" stop-opacity="0"/>
</linearGradient>
</defs>
</svg>
