<svg width="90" height="95" viewBox="0 0 90 95" fill="none" xmlns="http://www.w3.org/2000/svg">
<rect x="0.5" y="0.876953" width="88.9912" height="92.999" rx="9.5" fill="url(#paint0_linear_4246_711)"/>
<rect x="0.5" y="0.876953" width="88.9912" height="92.999" rx="9.5" fill="url(#paint1_linear_4246_711)" fill-opacity="0.2"/>
<rect x="0.5" y="0.876953" width="88.9912" height="92.999" rx="9.5" stroke="url(#paint2_linear_4246_711)"/>
<path fill-rule="evenodd" clip-rule="evenodd" d="M57.752 66.8721H60.4984V68.8509H57.752V66.8721ZM26.4656 24.377H63.5209C64.292 24.3818 65.0536 24.9465 65.401 25.4243C65.8389 26.0179 65.9912 26.6984 65.9912 27.7022V63.6385C65.9912 64.7196 65.7628 65.4242 65.2201 65.9986C64.2825 66.9928 63.3448 66.8721 62.0073 66.8721V69.6569C62.0073 70.0912 61.7264 70.376 61.298 70.376H56.9571C56.5287 70.376 56.2479 70.0912 56.2479 69.6569V66.8721H33.7434V69.6569C33.7434 70.0912 33.4625 70.376 33.0342 70.376H28.6932C28.2648 70.376 27.984 70.0912 27.984 69.6569V66.8721H26.9225C24.9662 66.8721 24 65.5401 24 63.6385V27.7022C24 26.6501 24.1666 25.9793 24.6283 25.376C24.9662 24.932 25.7183 24.3818 26.4704 24.377H26.4656ZM29.4881 66.8721H32.2345V68.8509H29.4881V66.8721ZM25.5898 64.4445V26.8914C25.5898 26.4088 26.0896 25.902 26.5655 25.902H63.4257C63.9017 25.902 64.4015 26.4088 64.4015 26.8914V64.4445C64.4015 64.6569 64.1063 64.9754 63.9636 65.0816C63.7541 65.236 63.5352 65.3422 63.1591 65.3422H26.8321C26.4561 65.3422 26.2371 65.2312 26.0277 65.0816C25.8849 64.9754 25.5898 64.6569 25.5898 64.4445Z" fill="#E01436"/>
<path fill-rule="evenodd" clip-rule="evenodd" d="M30.997 31.4762H58.9943V59.7774H30.997V31.4762ZM29.4929 30.9357V33.4501H28.8741V39.4685H29.4929V51.7754H28.8741V57.7069H29.4929V60.3131C29.4929 60.8729 29.7452 61.3025 30.2925 61.3025H59.7083C60.2509 61.3025 60.508 60.8729 60.508 60.3131V30.9357C60.508 30.4917 60.3033 29.9463 59.8892 29.9463H30.1164C29.926 29.9463 29.7309 30.1249 29.6452 30.2745C29.55 30.4337 29.4977 30.6992 29.4977 30.9308L29.4929 30.9357Z" fill="#E01436"/>
<path fill-rule="evenodd" clip-rule="evenodd" d="M46.9425 45.6703C46.9425 43.2089 48.8369 41.2253 51.3073 41.1384C51.8166 41.1191 52.6543 41.288 53.1112 41.4811C55.8291 42.6539 56.7858 46.3846 54.5439 48.7012C52.621 50.6944 49.6128 50.5303 47.7659 48.1558C47.3614 47.6346 46.9425 46.3459 46.9425 45.6654V45.6703ZM45.5241 44.8595C44.8624 44.8595 43.663 44.623 43.663 45.5786C43.663 46.5438 44.7815 46.3894 45.5241 46.3894C45.5764 48.7639 48.1848 51.6017 51.193 51.6017C56.2527 51.6017 58.4042 46.4811 56.7763 43.1558C56.6145 42.8276 56.4907 42.5332 56.2718 42.2292C56.0623 41.9444 55.8862 41.6741 55.6482 41.4232C55.2341 40.9792 54.5725 40.5062 54.0013 40.2166C51.7547 39.0728 49.4652 39.5216 47.5232 41.0467C46.7045 41.6934 45.5241 43.455 45.5241 44.8595Z" fill="#E01436"/>
<path fill-rule="evenodd" clip-rule="evenodd" d="M50.3124 45.5787C50.3124 45.3036 50.4885 44.9851 50.6408 44.8307C51.3357 44.1309 52.44 44.6762 52.44 45.6656C52.44 46.9542 50.3124 47.0363 50.3124 45.5739V45.5787ZM50.8455 43.0643C50.6027 43.0643 50.498 42.7747 50.3647 42.5623C50.1934 42.2969 50.0982 42.1617 49.9602 41.8963C49.5318 42.128 49.1177 42.432 48.7178 42.7071C48.813 43.1173 49.4318 43.7834 49.3652 43.9475C49.2557 44.2033 48.2609 43.7255 47.9229 43.6965C47.7468 44.0681 47.6564 44.7631 47.4803 45.1347C47.9229 45.2409 48.3133 45.4533 48.8083 45.4919C48.7702 45.9311 48.6512 45.8587 48.2514 46.0083C47.9801 46.1096 47.7373 46.2399 47.4755 46.3027C47.7088 46.7515 47.8563 47.2824 48.0943 47.7409C50.1363 46.6453 49.3081 47.6733 48.8035 48.6386L50.1315 49.3577C50.7455 48.4262 50.4695 48.2042 51.1073 48.1897C51.1501 48.6965 51.3643 49.1309 51.3738 49.628C51.7165 49.5459 52.6352 49.3867 52.8779 49.2708C52.7875 48.8751 52.6114 48.2766 52.6114 47.8326C53.2873 47.8471 53.4444 48.4841 54.0298 48.6434C54.144 48.2139 54.7152 47.8181 54.8295 47.3838C54.5772 47.2148 54.3535 47.0556 54.1012 46.8577C53.1778 46.1338 54.7438 46.3027 55.2721 46.3027L55.1817 44.7776H53.7633C53.8775 44.3336 54.4772 43.9378 54.8247 43.7013C54.5486 43.2863 54.0917 42.9002 53.8489 42.5334C53.4824 42.7843 53.4396 42.8278 53.1207 43.1463C52.7827 43.4841 52.5352 43.571 52.6399 42.8471C52.8018 41.7563 52.9208 41.9301 52.5257 41.8143C52.3591 41.766 51.4595 41.6357 51.2834 41.6309C51.2786 41.9301 51.2215 42.0845 51.1739 42.4175C51.1311 42.7071 51.1739 43.0691 50.8407 43.0691L50.8455 43.0643Z" fill="#E01436"/>
<defs>
<linearGradient id="paint0_linear_4246_711" x1="44.9956" y1="0.376953" x2="44.9956" y2="94.376" gradientUnits="userSpaceOnUse">
<stop stop-color="#242424"/>
<stop offset="1" stop-color="#242424" stop-opacity="0"/>
</linearGradient>
<linearGradient id="paint1_linear_4246_711" x1="208.616" y1="-93.088" x2="-7.67739" y2="85.0544" gradientUnits="userSpaceOnUse">
<stop offset="0.224072" stop-color="#FF0C34"/>
<stop offset="0.687143" stop-color="#FF0C34" stop-opacity="0"/>
</linearGradient>
<linearGradient id="paint2_linear_4246_711" x1="44.9956" y1="0.376953" x2="44.9956" y2="94.376" gradientUnits="userSpaceOnUse">
<stop stop-color="#2E2E2E"/>
<stop offset="1" stop-color="#2E2E2E" stop-opacity="0"/>
</linearGradient>
</defs>
</svg>
