<svg width="88" height="88" viewBox="0 0 88 88" fill="none" xmlns="http://www.w3.org/2000/svg">
<rect x="0.5" y="0.5" width="87" height="87" rx="9.5" fill="url(#paint0_linear_4246_670)"/>
<rect x="0.5" y="0.5" width="87" height="87" rx="9.5" fill="url(#paint1_linear_4246_670)" fill-opacity="0.2"/>
<rect x="0.5" y="0.5" width="87" height="87" rx="9.5" stroke="url(#paint2_linear_4246_670)"/>
<path fill-rule="evenodd" clip-rule="evenodd" d="M39.9028 59.4467C39.9116 56.147 39.4402 50.4419 40.7354 47.7942C44.0704 40.9657 53.4364 41.9834 55.9079 48.1246C56.7053 50.1071 56.5731 51.442 56.5731 53.6491C56.5731 55.7505 56.5952 57.8608 56.5687 59.9622C52.3571 61.4336 46.1674 61.3852 41.665 60.1516C41.3698 60.0723 41.0702 59.9842 40.7574 59.9005C39.6252 59.6009 40.0305 59.5921 39.9028 59.4467ZM47.2335 30.0974C50.2204 29.5026 52.617 31.5556 53.1016 33.9566C53.7096 36.9875 51.5773 39.3269 49.2072 39.8115C46.2687 40.4106 43.8545 38.2828 43.3875 35.9787C42.7839 32.9918 44.8677 30.5687 47.2335 30.0974ZM45.6035 41.3974C44.7796 41.7499 44.0175 41.9349 43.2289 42.3755C41.1231 43.5517 39.4534 45.3624 38.5282 47.9044C37.7749 49.9705 37.9159 51.8957 37.9159 54.1734C37.9159 56.4598 37.8894 58.7595 37.9203 61.0415C39.4798 61.4512 40.8543 62.0284 42.5813 62.4028C44.3038 62.7773 46.1365 62.9755 47.9604 63.0416C50.7843 63.143 53.4408 62.7993 56.1458 62.1473C56.93 61.9579 57.8595 61.5878 58.5688 61.4777C58.5292 57.9885 58.9829 51.0323 58.0225 48.1202C57.4851 46.4858 56.2339 44.6707 55.3881 43.9042C54.5598 43.1552 52.5245 41.7675 50.8856 41.4547C51.3086 41.0582 52.8637 40.6441 54.1677 38.5559C56.974 34.0667 53.6964 27.9475 48.1719 28.0003C42.5505 28.0576 39.612 34.3487 42.3037 38.5339C42.7399 39.2123 43.132 39.8115 43.6827 40.2124C45.0396 41.2124 44.8325 40.8864 45.6079 41.3974H45.6035Z" fill="#E01436"/>
<path fill-rule="evenodd" clip-rule="evenodd" d="M59.027 37.5778C60.798 37.1814 62.2871 38.481 62.5955 39.8599C63.0052 41.6794 61.6923 43.2301 60.2782 43.512C56.4057 44.2918 54.9784 38.4854 59.027 37.5778ZM58.049 46.6488C61.1813 46.1245 63.0228 46.8911 64.0581 49.1423C64.8907 50.9441 65.3137 54.8782 65.0449 57.0193C64.3048 57.6537 64.1726 57.8695 62.9787 58.222C62.0316 58.5039 61.1593 58.5171 60.2209 58.7242C60.2473 59.037 60.287 59.3322 60.3178 59.6494C60.331 59.7947 60.3398 59.9798 60.3575 60.1207L60.5073 60.6494C62.7276 60.46 66.9833 59.5657 67.0582 57.0281C67.1551 53.7945 66.9613 48.2656 64.4986 46.0716C63.644 45.3139 62.7056 45.0804 62.3488 44.7896C62.8818 44.3579 62.895 44.446 63.4986 43.772C65.296 41.7719 65.0934 37.7937 62.0712 36.1593C58.5512 34.2561 54.3131 36.9082 54.6391 40.9833C54.7713 42.6001 55.6172 43.6795 56.626 44.5561C57.2648 45.1112 57.7891 44.7368 58.049 46.6488Z" fill="#E01436"/>
<path fill-rule="evenodd" clip-rule="evenodd" d="M35.907 37.5647C37.7088 37.2255 39.1274 38.4987 39.4226 39.9525C39.7838 41.7499 38.4093 43.3051 36.9907 43.5342C32.9553 44.1862 32.0566 38.2872 35.907 37.5647ZM33.7307 44.7941C33.4311 45.0188 32.9685 45.1422 32.6117 45.3668C29.8098 47.1555 29.2679 50.2702 29.0741 53.6492C29.0124 54.7021 28.9771 55.9797 29.0168 57.0282C29.1137 59.6847 33.5236 60.4336 35.6911 60.6715L35.8673 58.6846C34.2285 58.5701 32.2064 58.1824 31.2548 57.2793C30.7834 56.8343 31.0037 55.2968 31.0345 54.4862C31.1138 52.2482 31.5147 48.8956 33.1139 47.552C34.5236 46.3669 35.8101 46.3096 37.9467 46.6268C38.2639 46.1598 38.1802 45.4021 38.5591 45.0893C39.0481 44.6884 41.1143 44.0276 41.4359 41.1023C42.0703 35.4016 34.1316 33.3443 31.8671 38.5075C30.9816 40.5208 31.4795 42.0759 32.5191 43.6795C32.9905 44.402 33.2108 44.2655 33.7307 44.7941Z" fill="#E01436"/>
<defs>
<linearGradient id="paint0_linear_4246_670" x1="44" y1="0" x2="44" y2="88" gradientUnits="userSpaceOnUse">
<stop stop-color="#242424"/>
<stop offset="1" stop-color="#242424" stop-opacity="0"/>
</linearGradient>
<linearGradient id="paint1_linear_4246_670" x1="204" y1="-87.5" x2="8.27014e-06" y2="88" gradientUnits="userSpaceOnUse">
<stop offset="0.224072" stop-color="#FF0C34"/>
<stop offset="0.687143" stop-color="#FF0C34" stop-opacity="0"/>
</linearGradient>
<linearGradient id="paint2_linear_4246_670" x1="44" y1="0" x2="44" y2="88" gradientUnits="userSpaceOnUse">
<stop stop-color="#2E2E2E"/>
<stop offset="1" stop-color="#2E2E2E" stop-opacity="0"/>
</linearGradient>
</defs>
</svg>
