<svg width="92" height="92" viewBox="0 0 92 92" fill="none" xmlns="http://www.w3.org/2000/svg">
<rect x="0.5" y="1.37549" width="90.2758" height="89.5015" rx="9.5" fill="url(#paint0_linear_4246_704)"/>
<rect x="0.5" y="1.37549" width="90.2758" height="89.5015" rx="9.5" fill="url(#paint1_linear_4246_704)" fill-opacity="0.2"/>
<rect x="0.5" y="1.37549" width="90.2758" height="89.5015" rx="9.5" stroke="url(#paint2_linear_4246_704)"/>
<path fill-rule="evenodd" clip-rule="evenodd" d="M36.4095 41.7903C36.4095 41.9477 36.444 41.9132 36.2886 41.8671L36.1427 41.9132C36.135 42.0782 36.254 42.0014 36.0371 42.0744L35.9009 42.1166L35.7819 42.2721L35.6552 42.3258L35.4825 42.4064L35.4748 41.4161L35.4614 40.7098L32.2218 40.6887C32.0798 43.5253 32.2602 42.5523 32.5058 44.6365C32.0318 44.8054 31.4791 45.3178 31.0089 45.5827L30.9417 43.7306L27.7098 43.7153C27.4181 45.8763 27.919 46.6286 28.0034 47.8204C27.5754 47.9816 24.3723 50.3 24.0058 50.6781L24 53.3534L28.2625 51.2654C31.2334 49.9315 39.841 45.7515 42.6871 46.1872L43.1804 60.37C41.764 61.0379 38.5129 63.1624 36.849 64.0069L36.8451 65.69C37.6704 65.4942 43.7005 64.598 44.3492 64.646C44.401 64.9933 44.7464 67.3002 45.0017 67.377L46.3605 67.3731L46.8729 64.6248L54.3788 65.6861L54.375 63.9838C53.8453 63.7919 50.3639 61.7192 49.6327 61.2778C49.3832 61.1262 48.1108 60.4736 48.0455 60.2913L48.5752 46.1853C51.3619 45.7842 59.8735 49.7838 62.8233 51.179L67.2758 53.363L67.2662 50.5591C66.2548 50.0371 64.3528 48.4 63.2647 47.759C63.3491 46.6344 63.8462 46.0529 63.5679 43.721L60.3705 43.7191L60.2918 45.5846C59.8351 45.4291 59.2977 44.8303 58.7699 44.6365C59.0079 42.6425 59.2056 43.4504 59.0521 40.7079L55.8125 40.6906L55.7491 42.3795L52.3829 40.0324C51.2122 39.2225 50.0914 38.4068 48.9437 37.5931C48.8861 35.1039 49.0051 32.5744 48.936 30.0891C48.8592 27.3254 47.0399 25.8879 46.4679 24.9207C44.6236 24.8324 44.8846 24.7057 43.7158 26.3505C41.9751 28.8032 42.3398 30.3808 42.3398 33.3536C42.3398 34.7565 42.3705 36.194 42.334 37.5912L37.8911 40.7444C37.4478 41.063 36.8336 41.5869 36.4114 41.7865L36.4095 41.7903Z" fill="#E01436"/>
<path fill-rule="evenodd" clip-rule="evenodd" d="M35.6572 42.3257L35.7838 42.272L35.9028 42.1165L36.0391 42.0743C36.254 42.0014 36.137 42.0781 36.1447 41.9131L36.2905 41.867C36.446 41.9131 36.4114 41.9476 36.4114 41.7903L36.2905 41.867L36.1447 41.9131L36.0391 42.0743L35.9028 42.1165L35.7838 42.272L35.6572 42.3257C35.4614 41.9975 35.6188 41.7404 35.4768 41.416L35.4845 42.4063L35.6572 42.3257Z" fill="#E01436"/>
<defs>
<linearGradient id="paint0_linear_4246_704" x1="45.6379" y1="0.875488" x2="45.6379" y2="91.377" gradientUnits="userSpaceOnUse">
<stop stop-color="#242424"/>
<stop offset="1" stop-color="#242424" stop-opacity="0"/>
</linearGradient>
<linearGradient id="paint1_linear_4246_704" x1="211.594" y1="-89.1118" x2="1.53533" y2="93.1465" gradientUnits="userSpaceOnUse">
<stop offset="0.224072" stop-color="#FF0C34"/>
<stop offset="0.687143" stop-color="#FF0C34" stop-opacity="0"/>
</linearGradient>
<linearGradient id="paint2_linear_4246_704" x1="45.6379" y1="0.875488" x2="45.6379" y2="91.377" gradientUnits="userSpaceOnUse">
<stop stop-color="#2E2E2E"/>
<stop offset="1" stop-color="#2E2E2E" stop-opacity="0"/>
</linearGradient>
</defs>
</svg>
