<svg width="91" height="91" viewBox="0 0 91 91" fill="none" xmlns="http://www.w3.org/2000/svg">
<rect x="0.5" y="1.47607" width="90" height="88.8997" rx="9.5" fill="url(#paint0_linear_4246_684)"/>
<rect x="0.5" y="1.47607" width="90" height="88.8997" rx="9.5" fill="url(#paint1_linear_4246_684)" fill-opacity="0.2"/>
<rect x="0.5" y="1.47607" width="90" height="88.8997" rx="9.5" stroke="url(#paint2_linear_4246_684)"/>
<path fill-rule="evenodd" clip-rule="evenodd" d="M30.8082 63.008C30.4668 59.3981 35.5551 58.9587 36.0093 62.3341C36.2112 63.8333 35.0475 65.1336 33.7323 65.2791C32.3371 65.4334 30.9388 64.3974 30.8082 63.008ZM41.1422 50.4267C41.9052 50.2694 42.5345 50.8423 42.6681 51.4865C42.8492 52.3593 42.2555 52.9946 41.5816 53.1252C39.8924 53.4518 39.2155 50.8245 41.1422 50.4267ZM38.7198 55.1024C39.7796 55.2152 40.5485 55.4052 41.5875 55.0044C43.0006 54.4611 43.624 52.6888 44.3425 51.5043L47.7327 45.5966C49.9474 41.77 52.26 37.5218 54.4924 33.7604C55.9886 31.2371 56.811 28.2179 54.6616 25.7361C54.3618 25.3917 54.249 25.1304 53.869 24.9761C53.7176 25.3472 53.4742 25.6945 53.2634 26.0715C53.0704 26.4129 52.8745 26.7454 52.6696 27.1135C50.4016 31.145 34.8575 58.0889 34.6883 58.65C33.4652 58.365 32.4796 58.3709 31.4316 58.9736C28.2403 60.8082 28.8429 64.9555 31.3574 66.3062C35.3651 68.4615 39.0018 63.9877 37.0246 60.5588C36.7753 60.1284 36.4249 59.8226 36.2409 59.5168C36.6773 58.9172 37.1137 57.9523 37.4996 57.3052C37.7727 56.848 38.6337 55.4735 38.7227 55.1054L38.7198 55.1024Z" fill="#E01436"/>
<path fill-rule="evenodd" clip-rule="evenodd" d="M42.1012 39.9859L41.9706 40.173C41.8607 40.4787 42.2437 40.8736 41.7212 40.9003L40.7119 40.8409L40.5991 40.0958C40.5872 40.0869 40.5278 40.0394 40.5041 40.0275C39.8302 39.8523 39.2572 39.2319 39.1949 38.4511C39.0583 38.2552 39.0672 38.1602 39.1266 37.893C39.8242 37.8128 40.1033 37.8752 40.6228 37.9316L40.6673 38.2344L40.6436 38.3502L41.0117 38.7035C42.5821 38.7806 42.0804 37.6644 41.549 37.2844C41.264 37.0825 40.979 36.9341 40.6911 36.7293C40.4447 36.5541 40.13 36.3671 39.9252 36.1593C39.18 35.4112 38.6724 33.5706 40.7178 32.769L40.7297 31.9972L41.9617 31.9942L41.9765 32.772C42.9651 33.152 43.3599 33.6032 43.4371 34.8293L42.0151 34.8204C41.837 34.4137 41.8014 33.9892 41.1364 34.1435C40.6911 34.2474 40.6584 34.7492 40.9108 35.0995C41.1245 35.3963 42.1725 35.9604 42.6801 36.3137C44.1437 37.326 43.6242 39.8523 42.1071 39.9859H42.1012ZM25.6279 32.5137C26.1564 32.2465 27.2607 32.392 27.418 30.6316L39.085 30.6435C38.9277 30.8364 38.7525 30.9581 38.5833 31.1719C37.3899 32.6889 36.8466 34.3692 36.8377 36.3819C36.8288 38.2878 37.3127 40.3006 38.613 41.6336C38.705 41.7286 38.7792 41.7998 38.8653 41.8978C38.9039 41.9423 38.9396 41.9839 38.9781 42.0343C39.091 42.1917 38.9633 41.9542 39.085 42.2184L27.4151 42.2125C27.332 41.1111 26.7026 40.4906 25.625 40.4253L25.6279 32.5167V32.5137ZM24.0931 43.6731L42.6326 43.6849L45.1263 39.2705C45.5241 38.558 45.6458 38.5431 45.7586 37.5754C45.9219 36.1682 45.7883 34.7343 45.3608 33.4815C45.1679 32.9115 44.9007 32.3505 44.6305 31.8992C44.2951 31.3441 43.9151 31.0323 43.5945 30.6375L50.0454 30.6286C50.3067 30.2605 50.559 29.7588 50.8054 29.3432C50.6243 29.1354 50.4848 29.2096 49.9683 29.2125H30.7786C28.6174 29.2125 26.2246 29.3105 24.0961 29.2036L24.0931 43.6701V43.6731Z" fill="#E01436"/>
<path fill-rule="evenodd" clip-rule="evenodd" d="M48.5878 60.1047C50.1344 59.6357 51.4704 60.841 51.7524 62.0284C52.1324 63.6493 51.034 64.8784 49.8702 65.2109C46.7353 66.1045 45.0699 61.1705 48.5878 60.1047ZM42.6326 54.9867C42.6326 55.0965 42.6622 55.0698 42.5524 55.0698L42.4455 55.1114C42.5435 55.2212 42.4455 55.1826 42.6771 55.2242C42.6949 55.2272 42.9235 55.2153 42.9443 55.2153L43.8942 55.0995C44.0635 55.6131 46.2098 59.0686 46.385 59.603C42.6504 63.3317 47.5517 69.2542 51.8593 65.867C53.3377 64.7062 53.7444 62.7112 53.02 60.93C52.3105 59.1844 50.4402 58.1068 47.9257 58.6471C47.8486 58.3146 45.7794 54.8086 45.3103 53.9892C45.1025 53.6241 44.6869 52.7008 44.3544 52.4692C44.1525 53.0897 43.2916 54.4939 42.6355 54.9897L42.6326 54.9867Z" fill="#E01436"/>
<path fill-rule="evenodd" clip-rule="evenodd" d="M55.953 32.0414C56.3122 32.3264 56.425 32.3799 57.0187 32.46L57.0217 40.3983C56.4517 40.5527 56.1133 40.5972 55.7808 40.9297C55.4869 41.2236 55.3088 41.6659 55.2672 42.2181H50.2828C49.9918 42.6515 49.6564 43.2097 49.4515 43.6698L58.6248 43.6876V29.1855L56.4992 29.1915C56.5022 30.2305 56.2558 31.1568 55.9559 32.0414H55.953Z" fill="#E01436"/>
<path fill-rule="evenodd" clip-rule="evenodd" d="M38.2121 51.3205L40.9849 46.4963C40.7889 45.9471 40.0082 44.7389 39.6875 44.2104L34.1331 44.2164C34.2014 44.5578 35.8045 47.2237 36.1221 47.761C36.4517 48.3162 37.942 51.1067 38.2091 51.3205H38.2121Z" fill="#E01436"/>
<path fill-rule="evenodd" clip-rule="evenodd" d="M26.6729 28.663H30.8023C30.6064 28.2029 28.9113 25.2015 28.6916 24.9907C28.3264 25.1778 27.6555 26.1426 27.3943 26.5315C27.0113 27.1015 26.8065 27.8377 26.6729 28.66V28.663Z" fill="#E01436"/>
<path fill-rule="evenodd" clip-rule="evenodd" d="M28.843 38.0414C29.8701 38.0414 32.3193 38.1275 33.2693 37.982C33.4177 37.5783 33.3316 37.2339 32.7854 37.2339H28.7688C28.0355 37.2339 27.9999 38.0414 28.843 38.0414Z" fill="#E01436"/>
<path fill-rule="evenodd" clip-rule="evenodd" d="M28.8429 35.6009H32.7853C33.1208 35.6009 33.3553 35.5326 33.3553 35.1972C33.3553 34.7964 33.0792 34.835 32.7111 34.835H28.834C28.4837 34.835 28.2432 34.8291 28.2343 35.1912C28.2224 35.5831 28.4866 35.6039 28.8459 35.6039L28.8429 35.6009Z" fill="#E01436"/>
<path fill-rule="evenodd" clip-rule="evenodd" d="M24.0901 43.6728L24.093 29.2063C26.2216 29.3132 28.6143 29.2152 30.7756 29.2152H49.9652C50.4818 29.2152 50.6242 29.138 50.8024 29.3458L50.9092 29.144C48.7302 29.239 46.3553 29.1529 44.1614 29.1529C42.0091 29.1529 24.5472 29.0549 24.0366 29.2004C23.9891 30.4977 23.9713 43.4353 24.0871 43.6728H24.0901Z" fill="#E01436"/>
<path fill-rule="evenodd" clip-rule="evenodd" d="M52.6845 37.9968C52.9933 38.0769 53.5722 38.065 53.9136 38.0413C54.4331 38.0057 54.4865 37.7682 54.3648 37.3288C53.9611 37.1893 53.5306 37.2308 53.0645 37.2397L52.6845 37.9968Z" fill="#E01436"/>
<path fill-rule="evenodd" clip-rule="evenodd" d="M42.1011 39.9858L41.9022 40.0274L41.9318 40.8349L40.7592 40.8438L40.7711 40.069L40.5039 40.0274C40.5247 40.0393 40.587 40.0868 40.5989 40.0957L40.7117 40.8408L41.7211 40.9002C42.2436 40.8735 41.8606 40.4786 41.9704 40.1729L42.1011 39.9858Z" fill="#E01436"/>
<path fill-rule="evenodd" clip-rule="evenodd" d="M39.1947 38.4508L39.1412 37.9313H40.4475C40.7295 38.0589 40.4564 37.8481 40.6701 38.2341L40.6256 37.9313C40.1031 37.8749 39.827 37.8125 39.1294 37.8927C39.07 38.1598 39.064 38.2548 39.1976 38.4508H39.1947Z" fill="#E01436"/>
<path fill-rule="evenodd" clip-rule="evenodd" d="M54.0857 35.5953C54.439 35.4944 54.4568 35.4587 54.433 35.0312C54.4182 35.0431 54.3944 35.0431 54.3885 35.0698L54.0857 35.5953Z" fill="#E01436"/>
<path fill-rule="evenodd" clip-rule="evenodd" d="M42.4425 55.111C42.3059 55.1526 42.3475 55.0813 42.2525 55.1585C42.392 55.2743 42.0328 55.2921 42.6028 55.298C42.7453 55.298 42.8729 55.2387 42.9412 55.2149C42.9204 55.2149 42.6918 55.2268 42.674 55.2238C42.4454 55.1852 42.5434 55.2209 42.4425 55.111L42.5493 55.0695C42.6592 55.0695 42.6295 55.0962 42.6295 54.9863L42.5493 55.0695L42.4425 55.111Z" fill="#E01436"/>
<path fill-rule="evenodd" clip-rule="evenodd" d="M41.0117 38.7034L40.6436 38.3501C40.8425 38.5965 40.7564 38.5134 41.0117 38.7034Z" fill="#E01436"/>
<defs>
<linearGradient id="paint0_linear_4246_684" x1="45.5" y1="0.976074" x2="45.5" y2="90.8757" gradientUnits="userSpaceOnUse">
<stop stop-color="#242424"/>
<stop offset="1" stop-color="#242424" stop-opacity="0"/>
</linearGradient>
<linearGradient id="paint1_linear_4246_684" x1="210.955" y1="-88.4128" x2="2.18692" y2="93.387" gradientUnits="userSpaceOnUse">
<stop offset="0.224072" stop-color="#FF0C34"/>
<stop offset="0.687143" stop-color="#FF0C34" stop-opacity="0"/>
</linearGradient>
<linearGradient id="paint2_linear_4246_684" x1="45.5" y1="0.976074" x2="45.5" y2="90.8757" gradientUnits="userSpaceOnUse">
<stop stop-color="#2E2E2E"/>
<stop offset="1" stop-color="#2E2E2E" stop-opacity="0"/>
</linearGradient>
</defs>
</svg>
