<svg width="89" height="82" viewBox="0 0 89 82" fill="none" xmlns="http://www.w3.org/2000/svg">
<rect x="0.5" y="0.5" width="87.2367" height="80.9759" rx="9.5" fill="url(#paint0_linear_4246_679)"/>
<rect x="0.5" y="0.5" width="87.2367" height="80.9759" rx="9.5" fill="url(#paint1_linear_4246_679)" fill-opacity="0.2"/>
<rect x="0.5" y="0.5" width="87.2367" height="80.9759" rx="9.5" stroke="url(#paint2_linear_4246_679)"/>
<path fill-rule="evenodd" clip-rule="evenodd" d="M24.0837 41.0826C24.1056 41.0717 24.1347 41.0498 24.1492 41.0462L24.8117 40.9807C26.2568 40.9952 28.8594 40.9151 29.9915 40.9989L29.9842 56.5963C30.1698 58.3872 32.5322 57.9213 34.3304 57.9213C36.2122 57.9213 38.1706 57.8703 40.0415 57.9322C39.9542 55.184 40.0343 52.3084 40.0306 49.5456C40.027 44.7881 39.4045 45.1849 44.1548 45.1849C48.8649 45.1849 48.2862 44.7299 48.2862 49.4401C48.2862 52.2392 48.359 55.1367 48.2789 57.9213C50.5248 57.9031 52.7707 57.9176 55.0166 57.9176C56.1522 57.9176 57.1896 58.1069 57.8412 57.4372C58.4345 56.8256 58.2234 55.4024 58.2234 54.4014C58.2234 52.1591 58.2271 49.9205 58.2234 47.6783C58.2198 46.6045 58.1543 41.6322 58.2671 40.9952L64.2367 41.0061L56.6036 34.6034C56.3415 34.3995 56.3379 34.3085 56.0503 34.1593C56.0212 31.6731 56.043 29.1725 56.0467 26.6827C56.0467 24.6989 55.8902 25.0265 53.9792 25.0265C48.8904 25.0265 50.0334 24.2912 49.8732 28.9359C49.0324 28.3862 44.3076 24.2621 43.8454 24L40.1471 27.1195C39.7394 27.5454 39.3754 27.7747 38.9204 28.1715L24 40.8642L24.0874 41.0753L24.0837 41.0826Z" fill="#E01436"/>
<defs>
<linearGradient id="paint0_linear_4246_679" x1="44.1184" y1="0" x2="44.1184" y2="81.9759" gradientUnits="userSpaceOnUse">
<stop stop-color="#242424"/>
<stop offset="1" stop-color="#242424" stop-opacity="0"/>
</linearGradient>
<linearGradient id="paint1_linear_4246_679" x1="204.549" y1="-81.5101" x2="12.9247" y2="95.9335" gradientUnits="userSpaceOnUse">
<stop offset="0.224072" stop-color="#FF0C34"/>
<stop offset="0.687143" stop-color="#FF0C34" stop-opacity="0"/>
</linearGradient>
<linearGradient id="paint2_linear_4246_679" x1="44.1184" y1="0" x2="44.1184" y2="81.9759" gradientUnits="userSpaceOnUse">
<stop stop-color="#2E2E2E"/>
<stop offset="1" stop-color="#2E2E2E" stop-opacity="0"/>
</linearGradient>
</defs>
</svg>
